<svg width="40" height="41" viewBox="0 0 40 41" fill="none" xmlns="http://www.w3.org/2000/svg">
<rect y="0.527275" width="40" height="40" rx="16" fill="#E3ECFB"/>
<path d="M12.9998 19.5273C12.9998 15.109 16.5813 11.5273 20.9992 11.5273C25.4171 11.5273 28.9985 15.109 28.9985 19.5273C28.9985 20.6773 28.7558 21.7706 28.319 22.7589L29 27.5265L24.9146 26.5051C23.7572 27.156 22.4215 27.5273 20.9992 27.5273M11.0009 24.5273C11.0009 25.246 11.1526 25.9294 11.4256 26.547L11 29.5268L13.5531 28.8884C14.2764 29.2952 15.1111 29.5273 16.0001 29.5273C18.761 29.5273 20.9992 27.2887 20.9992 24.5273C20.9992 21.7659 18.761 19.5273 16.0001 19.5273C13.2391 19.5273 11.0009 21.7659 11.0009 24.5273Z" stroke="black" stroke-width="2" stroke-linecap="round" stroke-linejoin="round"/>
</svg>
