<svg width="40" height="41" viewBox="0 0 40 41" fill="none" xmlns="http://www.w3.org/2000/svg">
<rect y="0.527283" width="40" height="40" rx="16" fill="#E3ECFB"/>
<path d="M28.7856 19.9973L25.9131 17.1248C25.6206 16.8323 25.1481 16.8323 24.8556 17.1248C24.5631 17.4173 24.5631 17.8898 24.8556 18.1823L26.4456 19.7723H19.6731C19.2606 19.7723 18.9231 20.1098 18.9231 20.5223C18.9231 20.9348 19.2606 21.2723 19.6731 21.2723H26.4306L24.8631 22.8173C24.5706 23.1098 24.5631 23.5823 24.8631 23.8748C25.0131 24.0248 25.2006 24.0998 25.3956 24.0998C25.5906 24.0998 25.7781 24.0248 25.9206 23.8823L28.7931 21.0548C28.9356 20.9123 29.0181 20.7248 29.0181 20.5223C29.0181 20.3198 28.9431 20.1323 28.8006 19.9898L28.7856 19.9973Z" fill="black"/>
<path d="M22.7481 24.7748C21.6156 25.9073 20.1081 26.5298 18.5031 26.5298C16.8981 26.5298 15.3906 25.9073 14.2581 24.7748C11.9181 22.4348 11.9181 18.6323 14.2581 16.2923C15.3906 15.1598 16.8981 14.5373 18.5031 14.5373C20.1081 14.5373 21.6156 15.1598 22.7481 16.2923C23.0406 16.5848 23.5131 16.5848 23.8056 16.2923C24.0981 15.9998 24.0981 15.5273 23.8056 15.2348C22.3881 13.8173 20.5056 13.0373 18.5031 13.0373C16.5006 13.0373 14.6181 13.8173 13.2006 15.2348C10.2756 18.1598 10.2756 22.9148 13.2006 25.8398C14.6181 27.2573 16.5006 28.0373 18.5031 28.0373C20.5056 28.0373 22.3881 27.2573 23.8056 25.8398C24.0981 25.5473 24.0981 25.0748 23.8056 24.7823C23.5131 24.4898 23.0406 24.4898 22.7481 24.7823V24.7748Z" fill="black"/>
</svg>
